<svg xmlns="http://www.w3.org/2000/svg" version="1.1" xmlns:xlink="http://www.w3.org/1999/xlink" xmlns:svgjs="http://svgjs.com/svgjs" width="1440" height="2000" preserveAspectRatio="none" viewBox="0 0 1440 2000"><g mask="url(&quot;#SvgjsMask1041&quot;)" fill="none"><path d="M4 45L-1073 1122" stroke-width="8" stroke="url(#SvgjsLinearGradient1042)" stroke-linecap="round" class="BottomLeft"></path><path d="M1384 94L1918 -440" stroke-width="8" stroke="url(#SvgjsLinearGradient1043)" stroke-linecap="round" class="TopRight"></path><path d="M758 112L1720 -850" stroke-width="6" stroke="url(#SvgjsLinearGradient1044)" stroke-linecap="round" class="BottomLeft"></path><path d="M1083 283L2120 -754" stroke-width="6" stroke="url(#SvgjsLinearGradient1042)" stroke-linecap="round" class="BottomLeft"></path><path d="M518 1549L1363 704" stroke-width="10" stroke="url(#SvgjsLinearGradient1043)" stroke-linecap="round" class="TopRight"></path><path d="M39 1468L987 520" stroke-width="10" stroke="url(#SvgjsLinearGradient1044)" stroke-linecap="round" class="BottomLeft"></path><path d="M1253 1995L555 2693" stroke-width="6" stroke="url(#SvgjsLinearGradient1045)" stroke-linecap="round" class="TopRight"></path><path d="M811 1157L438 1530" stroke-width="6" stroke="url(#SvgjsLinearGradient1043)" stroke-linecap="round" class="TopRight"></path><path d="M673 1570L1477 766" stroke-width="8" stroke="url(#SvgjsLinearGradient1045)" stroke-linecap="round" class="TopRight"></path><path d="M61 450L790 -279" stroke-width="6" stroke="url(#SvgjsLinearGradient1045)" stroke-linecap="round" class="TopRight"></path><path d="M1191 934L271 1854" stroke-width="10" stroke="url(#SvgjsLinearGradient1044)" stroke-linecap="round" class="BottomLeft"></path><path d="M1090 412L1942 -440" stroke-width="6" stroke="url(#SvgjsLinearGradient1044)" stroke-linecap="round" class="BottomLeft"></path><path d="M1056 1699L1744 1011" stroke-width="8" stroke="url(#SvgjsLinearGradient1043)" stroke-linecap="round" class="TopRight"></path><path d="M222 1916L1047 1091" stroke-width="6" stroke="url(#SvgjsLinearGradient1045)" stroke-linecap="round" class="TopRight"></path><path d="M654 483L187 950" stroke-width="10" stroke="url(#SvgjsLinearGradient1043)" stroke-linecap="round" class="TopRight"></path><path d="M136 313L1106 -657" stroke-width="10" stroke="url(#SvgjsLinearGradient1045)" stroke-linecap="round" class="TopRight"></path><path d="M352 1554L-717 2623" stroke-width="8" stroke="url(#SvgjsLinearGradient1043)" stroke-linecap="round" class="TopRight"></path><path d="M913 782L1292 403" stroke-width="10" stroke="url(#SvgjsLinearGradient1042)" stroke-linecap="round" class="BottomLeft"></path><path d="M280 1451L-287 2018" stroke-width="10" stroke="url(#SvgjsLinearGradient1044)" stroke-linecap="round" class="BottomLeft"></path><path d="M832 1277L1409 700" stroke-width="6" stroke="url(#SvgjsLinearGradient1042)" stroke-linecap="round" class="BottomLeft"></path><path d="M57 710L622 145" stroke-width="8" stroke="url(#SvgjsLinearGradient1044)" stroke-linecap="round" class="BottomLeft"></path><path d="M86 90L1027 -851" stroke-width="10" stroke="url(#SvgjsLinearGradient1043)" stroke-linecap="round" class="TopRight"></path><path d="M1154 417L1844 -273" stroke-width="10" stroke="url(#SvgjsLinearGradient1043)" stroke-linecap="round" class="TopRight"></path><path d="M301 606L836 71" stroke-width="10" stroke="url(#SvgjsLinearGradient1044)" stroke-linecap="round" class="BottomLeft"></path><path d="M1227 1162L2129 260" stroke-width="10" stroke="url(#SvgjsLinearGradient1043)" stroke-linecap="round" class="TopRight"></path><path d="M913 701L1847 -233" stroke-width="8" stroke="url(#SvgjsLinearGradient1043)" stroke-linecap="round" class="TopRight"></path><path d="M1161 1800L1704 1257" stroke-width="10" stroke="url(#SvgjsLinearGradient1045)" stroke-linecap="round" class="TopRight"></path><path d="M1102 914L683 1333" stroke-width="6" stroke="url(#SvgjsLinearGradient1044)" stroke-linecap="round" class="BottomLeft"></path><path d="M1007 409L556 860" stroke-width="8" stroke="url(#SvgjsLinearGradient1045)" stroke-linecap="round" class="TopRight"></path><path d="M1091 768L1474 385" stroke-width="6" stroke="url(#SvgjsLinearGradient1044)" stroke-linecap="round" class="BottomLeft"></path><path d="M1011 1900L-33 2944" stroke-width="10" stroke="url(#SvgjsLinearGradient1045)" stroke-linecap="round" class="TopRight"></path><path d="M323 898L1007 214" stroke-width="6" stroke="url(#SvgjsLinearGradient1042)" stroke-linecap="round" class="BottomLeft"></path><path d="M1053 1528L552 2029" stroke-width="10" stroke="url(#SvgjsLinearGradient1043)" stroke-linecap="round" class="TopRight"></path><path d="M261 691L-688 1640" stroke-width="6" stroke="url(#SvgjsLinearGradient1043)" stroke-linecap="round" class="TopRight"></path><path d="M114 376L895 -405" stroke-width="8" stroke="url(#SvgjsLinearGradient1042)" stroke-linecap="round" class="BottomLeft"></path><path d="M852 65L1518 -601" stroke-width="10" stroke="url(#SvgjsLinearGradient1043)" stroke-linecap="round" class="TopRight"></path><path d="M258 234L1056 -564" stroke-width="6" stroke="url(#SvgjsLinearGradient1042)" stroke-linecap="round" class="BottomLeft"></path><path d="M214 1990L917 1287" stroke-width="6" stroke="url(#SvgjsLinearGradient1044)" stroke-linecap="round" class="BottomLeft"></path><path d="M1361 217L318 1260" stroke-width="10" stroke="url(#SvgjsLinearGradient1042)" stroke-linecap="round" class="BottomLeft"></path><path d="M1150 1769L1726 1193" stroke-width="6" stroke="url(#SvgjsLinearGradient1044)" stroke-linecap="round" class="BottomLeft"></path><path d="M1428 1376L746 2058" stroke-width="8" stroke="url(#SvgjsLinearGradient1042)" stroke-linecap="round" class="BottomLeft"></path><path d="M1416 1795L1895 1316" stroke-width="6" stroke="url(#SvgjsLinearGradient1045)" stroke-linecap="round" class="TopRight"></path><path d="M1403 359L2274 -512" stroke-width="10" stroke="url(#SvgjsLinearGradient1042)" stroke-linecap="round" class="BottomLeft"></path><path d="M1354 1141L2157 338" stroke-width="6" stroke="url(#SvgjsLinearGradient1043)" stroke-linecap="round" class="TopRight"></path><path d="M281 802L-361 1444" stroke-width="6" stroke="url(#SvgjsLinearGradient1042)" stroke-linecap="round" class="BottomLeft"></path><path d="M362 1365L-365 2092" stroke-width="6" stroke="url(#SvgjsLinearGradient1044)" stroke-linecap="round" class="BottomLeft"></path><path d="M622 1903L112 2413" stroke-width="8" stroke="url(#SvgjsLinearGradient1042)" stroke-linecap="round" class="BottomLeft"></path><path d="M778 1529L1140 1167" stroke-width="10" stroke="url(#SvgjsLinearGradient1045)" stroke-linecap="round" class="TopRight"></path><path d="M1211 1756L840 2127" stroke-width="6" stroke="url(#SvgjsLinearGradient1043)" stroke-linecap="round" class="TopRight"></path><path d="M1104 1818L367 2555" stroke-width="6" stroke="url(#SvgjsLinearGradient1045)" stroke-linecap="round" class="TopRight"></path><path d="M674 1974L1381 1267" stroke-width="10" stroke="url(#SvgjsLinearGradient1042)" stroke-linecap="round" class="BottomLeft"></path><path d="M364 1121L-133 1618" stroke-width="6" stroke="url(#SvgjsLinearGradient1044)" stroke-linecap="round" class="BottomLeft"></path><path d="M687 502L96 1093" stroke-width="10" stroke="url(#SvgjsLinearGradient1044)" stroke-linecap="round" class="BottomLeft"></path><path d="M382 886L1426 -158" stroke-width="10" stroke="url(#SvgjsLinearGradient1045)" stroke-linecap="round" class="TopRight"></path><path d="M643 255L1460 -562" stroke-width="6" stroke="url(#SvgjsLinearGradient1043)" stroke-linecap="round" class="TopRight"></path><path d="M1215 462L1715 -38" stroke-width="6" stroke="url(#SvgjsLinearGradient1043)" stroke-linecap="round" class="TopRight"></path><path d="M1351 933L2225 59" stroke-width="10" stroke="url(#SvgjsLinearGradient1045)" stroke-linecap="round" class="TopRight"></path><path d="M1418 439L903 954" stroke-width="6" stroke="url(#SvgjsLinearGradient1043)" stroke-linecap="round" class="TopRight"></path><path d="M147 912L889 170" stroke-width="8" stroke="url(#SvgjsLinearGradient1044)" stroke-linecap="round" class="BottomLeft"></path><path d="M909 212L186 935" stroke-width="10" stroke="url(#SvgjsLinearGradient1042)" stroke-linecap="round" class="BottomLeft"></path><path d="M635 289L1205 -281" stroke-width="6" stroke="url(#SvgjsLinearGradient1045)" stroke-linecap="round" class="TopRight"></path><path d="M1079 273L1977 -625" stroke-width="8" stroke="url(#SvgjsLinearGradient1042)" stroke-linecap="round" class="BottomLeft"></path></g><defs><mask id="SvgjsMask1041"><rect width="1440" height="2000" fill="#ffffff"></rect></mask><linearGradient x1="100%" y1="0%" x2="0%" y2="100%" id="SvgjsLinearGradient1042"><stop stop-color="rgba(255, 88, 53, 0)" offset="0"></stop><stop stop-color="rgba(255, 88, 53, 1)" offset="1"></stop></linearGradient><linearGradient x1="0%" y1="100%" x2="100%" y2="0%" id="SvgjsLinearGradient1043"><stop stop-color="rgba(0, 0, 0, 0)" offset="0"></stop><stop stop-color="rgba(0, 0, 0, 1)" offset="1"></stop></linearGradient><linearGradient x1="100%" y1="0%" x2="0%" y2="100%" id="SvgjsLinearGradient1044"><stop stop-color="rgba(0, 0, 0, 0)" offset="0"></stop><stop stop-color="rgba(0, 0, 0, 1)" offset="1"></stop></linearGradient><linearGradient x1="0%" y1="100%" x2="100%" y2="0%" id="SvgjsLinearGradient1045"><stop stop-color="rgba(255, 88, 53, 0)" offset="0"></stop><stop stop-color="rgba(255, 88, 53, 1)" offset="1"></stop></linearGradient></defs></svg>