<svg xmlns="http://www.w3.org/2000/svg" version="1.1" xmlns:xlink="http://www.w3.org/1999/xlink" xmlns:svgjs="http://svgjs.com/svgjs" width="1440" height="2000" preserveAspectRatio="none" viewBox="0 0 1440 2000"><g mask="url(&quot;#SvgjsMask1078&quot;)" fill="none"><rect width="1440" height="2000" x="0" y="0" fill="rgba(0, 0, 0, 1)"></rect><path d="M 0,194 C 96,259.4 288,470.2 480,521 C 672,571.8 768,366.8 960,448 C 1152,529.2 1344,831.2 1440,927L1440 2000L0 2000z" fill="rgba(255, 92, 51, 1)"></path><path d="M 0,1296 C 57.6,1346.6 172.8,1543.8 288,1549 C 403.2,1554.2 460.8,1281.8 576,1322 C 691.2,1362.2 748.8,1735 864,1750 C 979.2,1765 1036.8,1399.2 1152,1397 C 1267.2,1394.8 1382.4,1670.6 1440,1739L1440 2000L0 2000z" fill="rgba(237, 242, 247, 1)"></path></g><defs><mask id="SvgjsMask1078"><rect width="1440" height="2000" fill="#ffffff"></rect></mask></defs></svg>