<svg xmlns="http://www.w3.org/2000/svg" version="1.1" xmlns:xlink="http://www.w3.org/1999/xlink" xmlns:svgjs="http://svgjs.com/svgjs" width="1440" height="2000" preserveAspectRatio="none" viewBox="0 0 1440 2000"><g mask="url(&quot;#SvgjsMask1111&quot;)" fill="none"><path d="M 801,-255.6169005804408 C 739.4,-175.62 503.8,-15.62 493,144.3830994195592 C 482.2,304.38 834.2,384.38 747,544.3830994195591 C 659.8,704.38 -36,784.38 57,944.3830994195591 C 150,1104.38 1159.8,1184.38 1212,1344.3830994195591 C 1264.2,1504.38 364,1584.38 318,1744.3830994195591 C 272,1904.38 978.6,2093.26 982,2144.383099419559 C 985.4,2195.51 464.4,2028.88 335,2000" stroke="rgba(0, 0, 0, 1)" stroke-width="2"></path><path d="M 852,-368.75760611057206 C 769.8,-288.76 373.8,-128.76 441,31.242393889427955 C 508.2,191.24 1252.6,271.24 1188,431.24239388942794 C 1123.4,591.24 133,671.24 118,831.242393889428 C 103,991.24 1072.2,1071.24 1113,1231.242393889428 C 1153.8,1391.24 344.6,1471.24 322,1631.242393889428 C 299.4,1791.24 979,1957.49 1000,2031.242393889428 C 1021,2104.99 541.6,2006.25 427,2000" stroke="rgba(255, 88, 53, 1)" stroke-width="2"></path><path d="M 507,-332.4568180635868 C 558.6,-252.46 797.6,-92.46 765,67.54318193641318 C 732.4,227.54 241,307.54 344,467.5431819364132 C 447,627.54 1335.8,707.54 1280,867.5431819364131 C 1224.2,1027.54 161.2,1107.54 65,1267.5431819364132 C -31.2,1427.54 765.2,1507.54 799,1667.5431819364132 C 832.8,1827.54 131.4,2001.05 234,2067.543181936413 C 336.6,2134.03 1096.4,2013.51 1312,2000" stroke="rgba(255, 88, 53, 1)" stroke-width="2"></path><path d="M 1023,-70.09785920274749 C 895.6,9.9 379.4,169.9 386,329.9021407972525 C 392.6,489.9 1107,569.9 1056,729.9021407972525 C 1005,889.9 57.2,969.9 131,1129.9021407972525 C 204.8,1289.9 1434.4,1369.9 1425,1529.9021407972525 C 1415.6,1689.9 164.8,1769.9 84,1929.9021407972525 C 3.2,2089.9 995.6,2315.88 1021,2329.9021407972523 C 1046.4,2343.92 373,2065.98 211,2000" stroke="rgba(255, 88, 53, 1)" stroke-width="2"></path><path d="M 963,-419.69979480224595 C 809.6,-339.7 213.2,-179.7 196,-19.69979480224593 C 178.8,140.3 882.4,220.3 877,380.30020519775405 C 871.6,540.3 101.8,620.3 169,780.300205197754 C 236.2,940.3 1127.6,1020.3 1213,1180.3002051977542 C 1298.4,1340.3 657.6,1420.3 596,1580.3002051977542 C 534.4,1740.3 927.8,1896.36 905,1980.3002051977542 C 882.2,2064.24 566.6,1996.06 482,2000" stroke="rgba(0, 0, 0, 1)" stroke-width="2"></path><path d="M 1330,-88.96328554929767 C 1155.6,-8.96 541.2,151.04 458,311.03671445070233 C 374.8,471.04 888.8,551.04 914,711.0367144507023 C 939.2,871.04 560.6,951.04 584,1111.0367144507022 C 607.4,1271.04 1083.6,1351.04 1031,1511.0367144507022 C 978.4,1671.04 244.8,1751.04 321,1911.0367144507022 C 397.2,2071.04 1425.4,2293.24 1412,2311.036714450702 C 1398.6,2328.83 485.6,2062.21 254,2000" stroke="rgba(0, 0, 0, 1)" stroke-width="2"></path><path d="M 61,-214.55642105748512 C 323.2,-134.56 1284.6,25.44 1372,185.44357894251488 C 1459.4,345.44 545.6,425.44 498,585.4435789425149 C 450.4,745.44 1169.6,825.44 1134,985.4435789425149 C 1098.4,1145.44 328.6,1225.44 320,1385.443578942515 C 311.4,1545.44 1089,1625.44 1091,1785.443578942515 C 1093,1945.44 360.6,2142.53 330,2185.4435789425147 C 299.4,2228.35 816.4,2037.09 938,2000" stroke="rgba(255, 88, 53, 1)" stroke-width="2"></path></g><defs><mask id="SvgjsMask1111"><rect width="1440" height="2000" fill="#ffffff"></rect></mask></defs></svg>